<?xml version="1.0" encoding="UTF-8"?>
<!DOCTYPE svg PUBLIC "-//W3C//DTD SVG 1.1//EN" "http://www.w3.org/Graphics/SVG/1.1/DTD/svg11.dtd">
<!-- Creator: CorelDRAW 2021 (64-Bit) -->
<svg xmlns="http://www.w3.org/2000/svg" xml:space="preserve" width="103.269mm" height="49.0674mm" version="1.1" style="shape-rendering:geometricPrecision; text-rendering:geometricPrecision; image-rendering:optimizeQuality; fill-rule:evenodd; clip-rule:evenodd"
viewBox="0 0 10656.24 5063.22"
 xmlns:xlink="http://www.w3.org/1999/xlink"
 xmlns:xodm="http://www.corel.com/coreldraw/odm/2003">
 <defs>
  <style type="text/css">
   <![CDATA[
    .fil2 {fill:#42A5FF}
    .fil0 {fill:#FBF3EE}
    .fil1 {fill:#FFD4D4}
   ]]>
  </style>
 </defs>
 <g id="Layer_x0020_1">
  <metadata id="CorelCorpID_0Corel-Layer"/>
  <g id="_1805326388048">
   <rect class="fil0" x="2614.6" width="5431.44" height="5063.22" rx="1080.86" ry="1080.86"/>
   <polygon class="fil1" points="-0,4165.4 2164.03,894.36 2868.36,897.21 3665.7,4167.6 2916.49,4167.12 2364.94,1643.08 775.92,4166.5 "/>
   <path class="fil1" d="M4197.96 4169.48l-195.2 -4.66 706.73 -3272.99 1087.91 0.83c0,0 1168.13,-89.75 1418.81,653.62 250.68,743.37 -255.73,1616.92 -1174.15,1669.82l-1081.08 50.25 1749.23 -1142.16 -1339.46 -1117.03 -578.27 3160.2 -594.52 2.14z"/>
   <path class="fil1" d="M7392.04 4158.54l653.55 -3267.97 1091.45 5.17c0,0 1285.23,-150.45 1484.1,744.47 198.87,894.92 -496.38,1403.43 -852.72,1497.93l-110.47 1031.96 -159.28 0.06 -519.1 -922.81 1057.99 -1465.08 -1280.46 -662.47 -623.74 3048.26 -741.3 -9.52z"/>
   <path class="fil2" d="M189.2 4163.05l1454.95 -3262.78 747.59 -8.51 1467.51 3275.84 -796.59 0 -298.19 -702.88 -1510.11 -2.13 -291.8 705.01 -773.37 -4.55zm1821.7 -2528.36l-515.52 1250.71 1037.4 -2.13 -521.88 -1248.59z"/>
   <path class="fil2" d="M4197.96 4169.48l0 -3278.05 1599.44 1.22c0,0 745.23,17.67 1079.52,574.8 334.29,557.14 171.42,1427.13 -595.71,1688.56 0,0 -270.03,134.98 -1320.23,110.33l-8.79 900.44 -754.23 2.7zm754.31 -2653.29l0 1123.68 743.2 0c0,0 608.55,-13.15 567.52,-609.83 -41.03,-596.68 -693.65,-518.37 -693.65,-518.37l-617.07 4.52z"/>
   <path class="fil2" d="M7573.8 4166.83l-2.02 -3278.5 1565.26 7.42c0,0 1108.43,11.28 1261.61,1004.14 0,0 136.17,856.71 -646.78,1214.13l720.57 1051.25 -814.5 4.84 -633.73 -922.86 -693.83 1.85 -0.91 919.42 -755.66 -1.68zm756.86 -2656.3l2.82 1135.28 719.9 2.81c0,0 635.31,-2.76 584.5,-637.86 0,0 -5.65,-505.27 -632.29,-499.62 -626.64,5.64 -674.93,-0.6 -674.93,-0.6z"/>
  </g>
 </g>
</svg>
