<?xml version="1.0" encoding="UTF-8"?>
<!DOCTYPE svg PUBLIC "-//W3C//DTD SVG 1.1//EN" "http://www.w3.org/Graphics/SVG/1.1/DTD/svg11.dtd">
<!-- Creator: CorelDRAW 2021 (64-Bit) -->
<svg xmlns="http://www.w3.org/2000/svg" xml:space="preserve" width="28.4114mm" height="13.4994mm" version="1.1" style="shape-rendering:geometricPrecision; text-rendering:geometricPrecision; image-rendering:optimizeQuality; fill-rule:evenodd; clip-rule:evenodd"
viewBox="0 0 4040.73 1919.91"
 xmlns:xlink="http://www.w3.org/1999/xlink"
 xmlns:xodm="http://www.corel.com/coreldraw/odm/2003">
 <defs>
  <style type="text/css">
   <![CDATA[
    .fil2 {fill:#42A5FF}
    .fil0 {fill:#FBF3EE}
    .fil1 {fill:#FFD4D4}
   ]]>
  </style>
 </defs>
 <g id="Layer_x0020_1">
  <metadata id="CorelCorpID_0Corel-Layer"/>
  <g id="_2673601651904">
   <rect class="fil0" x="991.43" y="0" width="2059.54" height="1919.91" rx="409.85" ry="409.85"/>
   <polygon class="fil1" points="-0,1579.47 820.58,339.13 1087.66,340.21 1389.99,1580.31 1105.9,1580.13 896.77,623.03 294.23,1579.89 "/>
   <path class="fil1" d="M1591.82 1581.02l-74.01 -1.78 267.97 -1241.07 412.53 0.31c0,0 442.94,-34.03 538,247.84 95.05,281.88 -96.98,613.12 -445.23,633.17l-409.94 19.06 663.29 -433.09 -507.9 -423.57 -219.28 1198.32 -225.44 0.81z"/>
   <path class="fil1" d="M2802.98 1576.87l247.81 -1239.18 413.87 1.96c0,0 487.35,-57.05 562.76,282.3 75.41,339.34 -188.23,532.17 -323.34,567.99l-41.9 391.31 -60.4 0.03 -196.84 -349.92 401.18 -555.53 -485.53 -251.21 -236.52 1155.87 -281.09 -3.61z"/>
   <path class="fil2" d="M71.75 1578.58l551.69 -1237.2 283.48 -3.23 556.46 1242.17 -302.05 0 -113.07 -266.54 -572.61 -0.8 -110.65 267.33 -293.25 -1.74zm690.76 -958.72l-195.48 474.25 393.37 -0.81 -197.89 -473.44z"/>
   <path class="fil2" d="M1591.82 1581.02l0 -1243.01 606.49 0.47c0,0 282.58,6.7 409.34,217.96 126.76,211.26 65,541.15 -225.89,640.28 0,0 -102.39,51.19 -500.62,41.83l-3.33 341.45 -285.99 1.02zm286.02 -1006.11l0 426.08 281.81 0c0,0 230.76,-4.98 215.2,-231.24 -15.56,-226.25 -263.03,-196.55 -263.03,-196.55l-233.98 1.71z"/>
   <path class="fil2" d="M2871.9 1580.02l-0.77 -1243.18 593.52 2.82c0,0 420.31,4.28 478.39,380.76 0,0 51.63,324.86 -245.25,460.39l273.22 398.62 -308.85 1.83 -240.3 -349.94 -263.1 0.71 -0.34 348.63 -286.53 -0.64zm286.99 -1007.24l1.07 430.49 272.98 1.07c0,0 240.9,-1.05 221.64,-241.88 0,0 -2.15,-191.59 -239.76,-189.45 -237.61,2.15 -255.93,-0.23 -255.93,-0.23z"/>
  </g>
 </g>
</svg>
